<?xml version="1.0" encoding="UTF-8"?>
<svg xmlns="http://www.w3.org/2000/svg" xmlns:xlink="http://www.w3.org/1999/xlink" width="34px" height="48px" viewBox="0 0 34 48" version="1.1">
<g id="surface1">
<path style=" stroke:none;fill-rule:nonzero;fill:rgb(92.54902%,13.333333%,11.764706%);fill-opacity:1;" d="M 31.546875 25.699219 L 31.539062 25.699219 C 33.109375 23.140625 34.007812 20.132812 34.007812 16.921875 C 34 7.582031 26.390625 0.0195312 17 0.0195312 C 7.609375 0.0195312 0 7.582031 0 16.921875 C 0 20.132812 0.902344 23.140625 2.46875 25.699219 L 2.460938 25.699219 L 2.609375 25.921875 C 2.855469 26.304688 3.109375 26.679688 3.382812 27.035156 L 15.796875 45.019531 C 16.390625 45.816406 17.582031 45.816406 18.175781 45.019531 L 30.601562 27.054688 C 30.882812 26.679688 31.144531 26.304688 31.390625 25.914062 Z M 17 4.070312 C 23.855469 4.070312 29.40625 9.601562 29.40625 16.40625 C 29.40625 23.214844 23.855469 28.742188 17 28.742188 C 10.144531 28.742188 4.59375 23.226562 4.59375 16.40625 C 4.59375 9.589844 10.144531 4.070312 17 4.070312 Z M 17 4.070312 "/>
<path style=" stroke:none;fill-rule:nonzero;fill:rgb(84.705882%,7.058824%,7.058824%);fill-opacity:1;" d="M 17 7.808594 C 21.769531 7.808594 25.648438 11.664062 25.648438 16.40625 C 25.648438 21.152344 21.769531 25.007812 17 25.007812 C 12.230469 25.007812 8.351562 21.152344 8.351562 16.40625 C 8.351562 11.664062 12.230469 7.808594 17 7.808594 M 17 4.070312 C 10.144531 4.070312 4.59375 9.601562 4.59375 16.40625 C 4.59375 23.214844 10.144531 28.742188 17 28.742188 C 23.855469 28.742188 29.40625 23.214844 29.40625 16.40625 C 29.40625 9.601562 23.855469 4.070312 17 4.070312 Z M 17 4.070312 "/>
<path style=" stroke:none;fill-rule:nonzero;fill:rgb(20%,20%,20%);fill-opacity:1;" d="M 23.914062 47.132812 C 23.914062 46.664062 20.816406 46.28125 17 46.28125 C 13.183594 46.28125 10.085938 46.664062 10.085938 47.132812 C 10.085938 47.601562 13.183594 47.980469 17 47.980469 C 20.816406 47.980469 23.914062 47.601562 23.914062 47.132812 Z M 23.914062 47.132812 "/>
</g>
</svg>
